<?xml version="1.0" encoding="utf-8"?>
<!-- Generator: Adobe Illustrator 27.5.0, SVG Export Plug-In . SVG Version: 6.00 Build 0)  -->
<svg version="1.1" id="Layer_1" xmlns="http://www.w3.org/2000/svg" xmlns:xlink="http://www.w3.org/1999/xlink" x="0px" y="0px"
	 viewBox="0 0 491.52 491.52" style="enable-background:new 0 0 491.52 491.52;" xml:space="preserve">
<path style="fill-rule:evenodd;clip-rule:evenodd;fill:#F0F0F0;" d="M12.72,456.04v-301.5h131.53c-0.84-5.85-1.27-11.3-1.27-16.28
	c0-56.67,46.1-102.77,102.77-102.77s102.77,46.1,102.77,102.77c0,4.98-0.43,10.44-1.27,16.28H478.8v301.5H12.72z"/>
<path style="fill-rule:evenodd;clip-rule:evenodd;fill:#FFFFFF;" d="M340.18,160.54c1.57-8.22,2.36-15.68,2.36-22.28
	c0-53.36-43.41-96.77-96.77-96.77S149,84.9,149,138.26c0,6.6,0.79,14.06,2.36,22.28H18.72v289.5H472.8v-289.5H340.18L340.18,160.54z
	"/>
<g id="Layer_x5F_1">
	<g id="_298644688">
		<g>
			<path id="_298645384" style="fill-rule:evenodd;clip-rule:evenodd;fill:#68C4FB;" d="M30.72,172.54v265.5H460.8v-265.5
				C317.44,172.54,174.08,172.54,30.72,172.54L30.72,172.54z"/>
			<path id="_298645000" style="fill-rule:evenodd;clip-rule:evenodd;fill:#5A9EC6;" d="M337.46,172.54h-183.4
				c13.65,53.23,51.93,122.68,78.54,155.98c3.23,4.04,7.99,6.33,13.16,6.33s9.93-2.29,13.16-6.33
				C285.53,295.22,323.81,225.77,337.46,172.54z"/>
			<polygon id="_298645336" style="fill-rule:evenodd;clip-rule:evenodd;fill:#277628;" points="264.32,300.54 227.2,300.54 
				211.8,300.54 169.42,271.5 128.91,271.5 128.91,172.54 85.61,172.54 85.61,271.5 30.72,271.5 30.72,323.8 85.61,323.8 
				85.61,438.04 128.91,438.04 128.91,323.8 169.42,323.8 211.8,352.83 211.8,438.04 279.72,438.04 279.72,352.83 322.1,323.8 
				362.61,323.8 362.61,438.04 405.91,438.04 405.91,323.8 460.8,323.8 460.8,271.5 405.91,271.5 405.91,172.54 362.61,172.54 
				362.61,271.5 322.1,271.5 279.72,300.54 			"/>
			<path id="_298645048" style="fill-rule:evenodd;clip-rule:evenodd;fill:#245E25;" d="M264.32,300.54H227.2h-14.31
				c6.89,10.8,13.61,20.34,19.71,27.98c3.23,4.04,7.99,6.33,13.16,6.33s9.93-2.29,13.16-6.33c6.1-7.63,12.81-17.17,19.7-27.98
				H264.32L264.32,300.54z"/>
			<path id="_298644280" style="fill-rule:evenodd;clip-rule:evenodd;fill:#E04141;" d="M249.55,321.02
				c32.42-40.58,80.99-134.41,80.99-182.77c0-46.82-37.95-84.77-84.77-84.77S161,91.43,161,138.25
				c0,48.36,48.57,142.18,80.99,182.77c0.95,1.19,2.26,1.82,3.79,1.82S248.6,322.21,249.55,321.02z"/>
		</g>
		<path id="_298644184" style="fill-rule:evenodd;clip-rule:evenodd;fill:#E9E9E9;" d="M205.46,159.36l21.1-21.1l-21.1-21.1
			c-5.28-5.28-5.28-13.92,0-19.2c5.28-5.28,13.92-5.28,19.2,0l21.1,21.1l21.1-21.1c5.28-5.28,13.92-5.28,19.2,0s5.28,13.92,0,19.2
			l-21.1,21.1l21.1,21.1c5.28,5.28,5.28,13.92,0,19.2s-13.92,5.28-19.2,0l-21.1-21.1l-21.1,21.1c-5.28,5.28-13.92,5.28-19.2,0
			C200.17,173.28,200.18,164.64,205.46,159.36L205.46,159.36z"/>
	</g>
</g>
</svg>
